<svg width="186" height="40" viewBox="0 0 186 40" fill="none" xmlns="http://www.w3.org/2000/svg">
<g clip-path="url(#clip0_1437_16974)">
<path d="M0 0.350281H10.1556V39.9221H0V0.350281Z" fill="#F9F9F9"/>
<path d="M0 0.332703H10.3132V10.3132H0V0.332703Z" fill="#F9F9F9"/>
<path d="M60.02 15.2941C60.0224 14.7134 59.9095 14.0459 59.6885 13.5089C59.4666 12.9525 59.1277 12.4502 58.6948 12.0363C58.2259 11.597 57.6761 11.2531 57.0759 11.024C56.3653 10.7539 55.6096 10.6227 54.8496 10.6375H32.5857C31.8231 10.6321 31.0669 10.7759 30.3594 11.0608C29.6719 11.3233 29.0457 11.7244 28.5194 12.239C27.988 12.7588 27.5736 13.3864 27.3048 14.0795C27.0215 14.8005 26.878 15.5687 26.8816 16.3434V23.8709C26.8762 24.6338 27.02 25.3907 27.3048 26.0983C27.5715 26.7926 27.9862 27.4206 28.5194 27.9389C29.0457 28.4534 29.6719 28.8542 30.3594 29.1166C31.0669 29.4015 31.8231 29.5453 32.5857 29.5399H54.8496C55.5218 29.5343 56.1859 29.3902 56.8 29.1166C57.4068 28.8701 57.9667 28.5214 58.4558 28.0858C58.919 27.6414 59.2988 27.1181 59.578 26.5401C59.8646 25.9686 60.0161 25.3388 60.02 24.6995H70.3977V25.8036C70.3931 27.5456 70.0748 29.2725 69.4588 30.9019C68.8633 32.5559 67.9852 34.0941 66.8642 35.448C65.7437 36.7864 64.3681 37.8877 62.8168 38.6874C61.2029 39.5223 59.4083 39.9462 57.5916 39.9208H28.851C27.2077 39.9324 25.5793 39.6067 24.0669 38.9637C21.0933 37.7309 18.731 35.3674 17.4985 32.3929C16.8558 30.88 16.5301 29.2511 16.5417 27.6073V12.6623C16.5245 11.0061 16.8503 9.36398 17.4985 7.83985C18.1286 6.38862 19.0199 5.06614 20.1291 3.93813C21.2638 2.82016 22.6001 1.92724 24.0669 1.30628C25.5793 0.663348 27.2077 0.33757 28.851 0.349158H57.5916C59.4083 0.323811 61.2029 0.747248 62.8168 1.58218C64.3633 2.38137 65.7379 3.47558 66.8642 4.80313C67.9841 6.12368 68.8626 7.63134 69.4588 9.2571C70.0709 10.83 70.3894 12.5023 70.3977 14.1901V15.2941L60.02 15.2941Z" fill="#F9F9F9"/>
<path d="M181.349 39.8294H169.444L165.322 33.0743H137.116L133.049 39.8294H121.071L144.53 0.257751H157.889L181.349 39.8294ZM150.51 10.6382L143.15 22.6754H159.416L151.946 10.6382H150.51Z" fill="#F9F9F9"/>
<path d="M113.178 29.6704H77.8135V39.8302H113.178V29.6704Z" fill="#F9F9F9"/>
<path d="M119.029 15.092H77.8135V24.7364H119.029V15.092Z" fill="#F9F9F9"/>
<path d="M129.774 0.240967H77.8135V10.4008H129.774V0.240967Z" fill="#F9F9F9"/>
<path d="M176.914 0V1.49095H173.859V5.66902H172.369V1.49095H169.443V0H176.914Z" fill="#F9F9F9"/>
<path d="M185.69 0V5.66902H184.218V2.28226L181.716 5.66902L179.231 2.30068V5.66902H177.741V0H179.471L181.771 3.09244L184.071 0H185.69Z" fill="#F9F9F9"/>
</g>
<defs>
<clipPath id="clip0_1437_16974">
<rect width="185.69" height="40" fill="white"/>
</clipPath>
</defs>
</svg>
